<mxfile host="app.diagrams.net" modified="2023-09-14T00:48:56.424Z" agent="Mozilla/5.0 (Macintosh; Intel Mac OS X 10_15_7) AppleWebKit/537.36 (KHTML, like Gecko) Chrome/116.0.0.0 Safari/537.36" etag="OqMcuGE5XCU1XYOzYiRI" version="21.6.9" type="github">
  <diagram name="第 1 页" id="CuzWUCUattDr5D-PUrTy">
    <mxGraphModel dx="1194" dy="666" grid="1" gridSize="10" guides="1" tooltips="1" connect="1" arrows="1" fold="1" page="1" pageScale="1" pageWidth="827" pageHeight="1169" math="0" shadow="0">
      <root>
        <mxCell id="0" />
        <mxCell id="1" parent="0" />
        <mxCell id="m9GmWyoyBEbgpPIqaoeG-12" value="" style="rounded=0;whiteSpace=wrap;html=1;" parent="1" vertex="1">
          <mxGeometry x="360" y="370" width="420" height="280" as="geometry" />
        </mxCell>
        <mxCell id="m9GmWyoyBEbgpPIqaoeG-13" style="edgeStyle=orthogonalEdgeStyle;rounded=0;orthogonalLoop=1;jettySize=auto;html=1;exitX=1;exitY=0.5;exitDx=0;exitDy=0;entryX=0;entryY=0.5;entryDx=0;entryDy=0;" parent="1" source="m9GmWyoyBEbgpPIqaoeG-1" target="m9GmWyoyBEbgpPIqaoeG-12" edge="1">
          <mxGeometry relative="1" as="geometry" />
        </mxCell>
        <mxCell id="m9GmWyoyBEbgpPIqaoeG-16" value="Extract" style="edgeLabel;html=1;align=center;verticalAlign=middle;resizable=0;points=[];" parent="m9GmWyoyBEbgpPIqaoeG-13" vertex="1" connectable="0">
          <mxGeometry x="0.1091" y="3" relative="1" as="geometry">
            <mxPoint as="offset" />
          </mxGeometry>
        </mxCell>
        <mxCell id="m9GmWyoyBEbgpPIqaoeG-1" value="SQL Server" style="rounded=0;whiteSpace=wrap;html=1;" parent="1" vertex="1">
          <mxGeometry x="40" y="385" width="210" height="250" as="geometry" />
        </mxCell>
        <mxCell id="m9GmWyoyBEbgpPIqaoeG-15" style="edgeStyle=orthogonalEdgeStyle;rounded=0;orthogonalLoop=1;jettySize=auto;html=1;exitX=1;exitY=0.5;exitDx=0;exitDy=0;entryX=0;entryY=0.5;entryDx=0;entryDy=0;" parent="1" source="m9GmWyoyBEbgpPIqaoeG-2" target="m9GmWyoyBEbgpPIqaoeG-8" edge="1">
          <mxGeometry relative="1" as="geometry" />
        </mxCell>
        <mxCell id="m9GmWyoyBEbgpPIqaoeG-17" value="Transform" style="edgeLabel;html=1;align=center;verticalAlign=middle;resizable=0;points=[];" parent="m9GmWyoyBEbgpPIqaoeG-15" vertex="1" connectable="0">
          <mxGeometry x="-0.0286" y="1" relative="1" as="geometry">
            <mxPoint as="offset" />
          </mxGeometry>
        </mxCell>
        <mxCell id="m9GmWyoyBEbgpPIqaoeG-2" value="" style="rounded=0;whiteSpace=wrap;html=1;" parent="1" vertex="1">
          <mxGeometry x="370" y="380" width="180" height="170" as="geometry" />
        </mxCell>
        <mxCell id="m9GmWyoyBEbgpPIqaoeG-5" value="OSS" style="rounded=1;whiteSpace=wrap;html=1;" parent="1" vertex="1">
          <mxGeometry x="410" y="480" width="120" height="60" as="geometry" />
        </mxCell>
        <mxCell id="m9GmWyoyBEbgpPIqaoeG-6" value="数据湖" style="rounded=1;whiteSpace=wrap;html=1;" parent="1" vertex="1">
          <mxGeometry x="410" y="400" width="120" height="60" as="geometry" />
        </mxCell>
        <mxCell id="m9GmWyoyBEbgpPIqaoeG-8" value="OSS&lt;br&gt;（parquet文件）" style="rounded=0;whiteSpace=wrap;html=1;" parent="1" vertex="1">
          <mxGeometry x="640" y="380" width="120" height="170" as="geometry" />
        </mxCell>
        <mxCell id="m9GmWyoyBEbgpPIqaoeG-11" value="EMR" style="rounded=0;whiteSpace=wrap;html=1;" parent="1" vertex="1">
          <mxGeometry x="370" y="570" width="390" height="60" as="geometry" />
        </mxCell>
      </root>
    </mxGraphModel>
  </diagram>
</mxfile>
